<svg xmlns="http://www.w3.org/2000/svg" viewBox="0 0 50 50"><defs><style>.cls-1{fill:#231f20;}</style></defs><title>Recurso 44</title><g id="Capa_2" data-name="Capa 2"><g id="Layer_3" data-name="Layer 3"><path class="cls-1" d="M25,3.15A21.86,21.86,0,0,1,46.59,28.37c-.05.28-.09.53-.13.75a21.83,21.83,0,0,1-13.3,16.15h0l-.39.15A21.56,21.56,0,0,1,25,46.85a21.85,21.85,0,0,1,0-43.7M25,0a25,25,0,1,0,8.84,48.39l.5-.2A25,25,0,0,0,49.55,29.71c.06-.28.1-.56.15-.85A24.52,24.52,0,0,0,50,25,25,25,0,0,0,25,0Z"/><path class="cls-1" d="M38.86,21.52A7.92,7.92,0,0,0,27,15.44a7.59,7.59,0,0,0-1.39,1s-.23.28-.29.27-.12-.11-.16-.15a8.32,8.32,0,0,0-.71-.6,7.76,7.76,0,0,0-3.3-1.44,7.92,7.92,0,0,0-7,13.39c.95,1,1.92,1.94,2.88,2.9l6.19,6.24a11.74,11.74,0,0,0,1.18,1.16,1.62,1.62,0,0,0,1.52.21,3.72,3.72,0,0,0,1.24-1l1.47-1.48,6.12-6.15a29.86,29.86,0,0,0,2.47-2.56,8,8,0,0,0,1.59-3.64A7.81,7.81,0,0,0,38.86,21.52Zm-25.28.74A5.71,5.71,0,0,1,14.14,20a6.22,6.22,0,0,1,1.77-2.25,6.4,6.4,0,0,1,2.58-1.24,5.89,5.89,0,0,1,2.31-.07c1.3.24,1.93.79,1.85,1s-.82,0-1.93.09a6.7,6.7,0,0,0-3.87,1.43,6.52,6.52,0,0,0-2.22,3.48c-.29,1.07-.3,1.83-.51,1.86S13.54,23.58,13.58,22.26Z"/></g></g></svg>