<?xml version="1.0" encoding="UTF-8"?>
<!DOCTYPE svg PUBLIC "-//W3C//DTD SVG 1.1//EN" "http://www.w3.org/Graphics/SVG/1.1/DTD/svg11.dtd">
<svg version="1.1" id="Layer_1" xmlns="http://www.w3.org/2000/svg" xmlns:xlink="http://www.w3.org/1999/xlink" x="0px" y="0px" width="21px" height="21px" viewBox="0 0 21 21" enable-background="new 0 0 21 21" xml:space="preserve">
  <g id="icon">
    <path d="M7.7675,10.3578c0.089,-0.0713,1.1537,-1.4686,1.252,-1.5648c0.0983,-0.0962,0.1297,-0.1722,0.1934,-0.2912c0.0638,-0.119,0.026,-0.2405,-0.0283,-0.3486c-0.0543,-0.1081,-0.4943,-1.1542,-0.6774,-1.5804c-0.1783,-0.4151,-0.345,-0.3943,-0.4705,-0.4235c-0.1192,-0.0277,-0.2554,-0.0541,-0.3915,-0.0793s-0.3557,-0.0168,-0.5364,0.146c-0.1807,0.1628,-0.6926,0.5422,-0.6608,1.5127c0.0317,0.9705,0.794,2.0434,0.9004,2.1939c0.1064,0.1505,1.5091,2.3895,3.5853,3.6225c0.4938,0.2933,0.8781,0.485,1.1776,0.6307c0.494,0.2405,0.9384,0.3017,1.2886,0.3161c0.3904,0.016,1.1924,-0.2535,1.3475,-0.6826c0.1551,-0.4291,0.1422,-0.8239,0.0884,-0.9156s-0.1914,-0.1662,-0.3988,-0.3027l0,0c-0.2074,-0.1365,-1.2268,-0.7992,-1.4162,-0.8996c-0.1893,-0.1004,-0.3265,-0.1585,-0.4562,0.0137c-0.1296,0.1722,-1.5941,1.6073,-1.7089,1.7169" fill="none" stroke="#434A54" stroke-width="1" stroke-linecap="round" stroke-miterlimit="1" stroke-linejoin="round"/>
    <path d="M19,10.3559c0,4.6149,-3.8056,8.3559,-8.5,8.3559c-1.4667,0,-2.8466,-0.3652,-4.0508,-1.0081C5.8103,17.8186,2,19,2,19s1.0552,-3.2559,1.315,-4.1775C2.4822,13.5306,2,11.9986,2,10.3559C2,5.7411,5.8056,2,10.5,2S19,5.7411,19,10.3559z" fill="none" stroke="#434A54" stroke-width="1" stroke-linecap="round" stroke-miterlimit="1" stroke-linejoin="round"/>
  </g>
</svg>
